<?xml version="1.0" encoding="UTF-8" ?>
<!DOCTYPE svg PUBLIC "-//W3C//DTD SVG 1.1//EN" "http://www.w3.org/Graphics/SVG/1.1/DTD/svg11.dtd">
<svg width="180pt" height="180pt" viewBox="0 0 180 180" version="1.1" xmlns="http://www.w3.org/2000/svg">
<g id="#ffcc00ff">
<path fill="#ffcc00" opacity="1.00" d=" M 12.50 59.01 C 19.36 59.02 26.22 58.95 33.08 59.02 C 35.06 58.85 35.92 60.87 36.58 62.36 C 43.47 77.70 50.52 92.98 57.35 108.36 C 64.34 92.73 71.50 77.17 78.51 61.55 C 79.04 60.53 79.65 59.06 81.04 59.09 C 88.02 58.85 95.01 59.08 102.00 59.00 C 102.00 60.42 102.00 61.83 102.00 63.25 C 98.83 63.25 95.66 63.25 92.50 63.25 C 92.50 80.75 92.50 98.25 92.50 115.75 C 95.66 115.74 98.82 115.75 101.98 115.75 C 102.00 117.17 102.03 118.60 102.06 120.03 C 92.05 119.58 82.00 119.57 71.99 120.02 C 72.00 118.60 72.00 117.17 72.00 115.75 C 75.17 115.75 78.34 115.74 81.50 115.75 C 81.54 98.14 81.43 80.53 81.56 62.92 C 73.38 80.89 65.25 98.87 57.09 116.85 C 56.42 118.16 55.74 119.98 53.97 120.00 C 51.97 120.26 51.03 118.06 50.32 116.58 C 42.49 99.10 34.60 81.66 26.76 64.19 C 26.75 81.14 26.74 98.10 26.76 115.05 C 29.86 115.83 33.07 115.79 36.25 115.76 C 36.25 117.19 36.25 118.61 36.25 120.03 C 28.27 119.57 20.23 119.61 12.25 120.01 C 12.25 118.59 12.25 117.17 12.25 115.76 C 15.48 115.85 18.71 115.75 21.89 115.14 C 22.15 97.85 21.93 80.55 22.00 63.25 C 18.83 63.25 15.67 63.25 12.51 63.25 C 12.51 61.84 12.50 60.42 12.50 59.01 Z" />
<path fill="#ffcc00" opacity="1.00" d=" M 116.29 59.19 C 127.59 59.75 138.95 59.64 150.25 59.21 C 150.25 60.28 150.25 62.42 150.25 63.49 C 146.25 63.50 142.25 63.50 138.26 63.49 C 138.24 81.00 138.26 98.50 138.25 116.00 C 144.66 115.70 151.79 117.24 157.45 113.39 C 163.15 109.59 164.85 102.41 165.57 96.02 C 166.96 96.01 168.34 96.00 169.73 95.99 C 168.74 104.07 167.91 112.18 166.94 120.26 C 150.04 120.23 133.15 120.26 116.25 120.25 C 116.25 118.83 116.25 117.42 116.25 116.00 C 119.42 116.00 122.58 115.99 125.75 116.00 C 125.74 98.50 125.76 81.00 125.74 63.49 C 122.57 63.50 119.40 63.50 116.24 63.50 C 116.26 62.06 116.27 60.62 116.29 59.19 Z" />
</g>
<g id="#ffffffff">
<path fill="#ffffff" opacity="1.00" d=" M 145.16 78.18 C 147.48 73.53 153.64 71.03 158.40 73.42 C 162.13 75.04 163.41 79.52 163.23 83.27 C 158.13 83.23 153.02 83.26 147.92 83.25 C 147.99 86.42 148.24 90.03 150.82 92.26 C 153.30 94.72 157.64 94.50 160.06 92.08 C 161.18 90.65 162.03 89.03 163.15 87.59 C 163.35 93.34 156.38 96.83 151.45 94.65 C 144.79 92.65 141.77 84.10 145.16 78.18 M 147.84 82.24 C 151.94 82.26 156.04 82.25 160.14 82.25 C 159.85 78.62 158.70 73.33 154.06 73.45 C 149.70 73.87 148.23 78.55 147.84 82.24 Z" />
<path fill="#ffffff" opacity="1.00" d=" M 107.53 88.85 C 115.87 87.55 122.75 97.47 118.99 104.93 C 116.08 112.16 105.32 113.79 100.49 107.63 C 94.59 101.35 98.98 89.73 107.53 88.85 M 107.11 90.03 C 103.97 90.78 102.19 93.98 102.07 97.04 C 101.92 100.92 101.47 105.57 104.49 108.56 C 107.48 111.53 113.07 110.43 114.71 106.57 C 116.14 103.08 115.98 99.11 115.43 95.45 C 114.86 91.74 110.79 88.75 107.11 90.03 Z" />
</g>
</svg>
