<?xml version="1.0" encoding="UTF-8" ?>
<!DOCTYPE svg PUBLIC "-//W3C//DTD SVG 1.1//EN" "http://www.w3.org/Graphics/SVG/1.1/DTD/svg11.dtd">
<svg width="159pt" height="63pt" viewBox="0 0 159 63" version="1.1" xmlns="http://www.w3.org/2000/svg">
<g id="#ffcc00ff">
<path fill="#ffcc00" opacity="1.00" d=" M 1.50 1.01 C 8.36 1.02 15.22 0.95 22.08 1.02 C 24.06 0.85 24.92 2.87 25.58 4.36 C 32.47 19.71 39.52 34.98 46.35 50.36 C 53.34 34.72 60.50 19.17 67.52 3.55 C 68.04 2.53 68.66 1.06 70.04 1.09 C 77.02 0.85 84.01 1.08 91.00 1.00 C 91.00 2.42 91.00 3.83 91.00 5.25 C 87.83 5.25 84.66 5.25 81.50 5.25 C 81.50 22.75 81.50 40.25 81.50 57.75 C 84.66 57.75 87.82 57.75 90.98 57.75 C 91.00 59.17 91.03 60.60 91.06 62.03 C 81.05 61.58 71.00 61.57 60.99 62.02 C 61.00 60.60 61.00 59.17 61.00 57.75 C 64.17 57.75 67.34 57.74 70.50 57.75 C 70.54 40.14 70.43 22.53 70.56 4.92 C 62.27 23.10 54.07 41.34 45.76 59.51 C 45.21 61.01 43.88 62.33 42.15 62.00 C 40.61 61.48 39.97 59.92 39.32 58.58 C 31.50 41.11 23.61 23.66 15.76 6.20 C 15.74 23.15 15.74 40.10 15.76 57.05 C 18.86 57.83 22.07 57.79 25.25 57.76 C 25.25 59.19 25.25 60.61 25.25 62.03 C 17.27 61.57 9.23 61.61 1.25 62.01 C 1.25 60.59 1.25 59.17 1.25 57.76 C 4.48 57.85 7.71 57.75 10.89 57.14 C 11.15 39.85 10.93 22.55 11.00 5.25 C 7.83 5.25 4.67 5.25 1.51 5.25 C 1.51 3.84 1.50 2.42 1.50 1.01 Z" />
<path fill="#ffcc00" opacity="1.00" d=" M 105.29 1.19 C 116.59 1.75 127.95 1.64 139.25 1.21 C 139.25 2.28 139.25 4.42 139.25 5.49 C 135.25 5.50 131.25 5.50 127.25 5.49 C 127.24 23.00 127.26 40.50 127.25 58.00 C 133.66 57.70 140.78 59.24 146.45 55.39 C 152.15 51.60 153.85 44.41 154.57 38.02 C 155.96 38.01 157.34 38.00 158.73 37.99 C 157.74 46.07 156.91 54.18 155.94 62.26 C 139.04 62.24 122.15 62.26 105.25 62.25 C 105.25 60.83 105.25 59.42 105.25 58.00 C 108.42 58.00 111.58 57.99 114.75 58.00 C 114.74 40.50 114.76 23.00 114.74 5.49 C 111.57 5.50 108.40 5.50 105.24 5.50 C 105.26 4.06 105.27 2.62 105.29 1.19 Z" />
</g>
<g id="#ffffffff">
<path fill="#ffffff" opacity="1.00" d=" M 134.16 20.17 C 136.48 15.53 142.64 13.03 147.40 15.42 C 151.12 17.04 152.41 21.52 152.23 25.27 C 147.13 25.23 142.02 25.26 136.92 25.25 C 136.99 28.42 137.24 32.03 139.82 34.26 C 142.30 36.72 146.64 36.50 149.06 34.08 C 150.18 32.65 151.03 31.03 152.15 29.59 C 152.35 35.34 145.38 38.83 140.44 36.65 C 133.79 34.65 130.77 26.10 134.16 20.17 M 136.84 24.24 C 140.94 24.26 145.04 24.25 149.14 24.25 C 148.85 20.63 147.70 15.33 143.07 15.45 C 138.70 15.87 137.23 20.55 136.84 24.24 Z" />
<path fill="#ffffff" opacity="1.00" d=" M 96.52 30.85 C 104.86 29.54 111.75 39.47 107.99 46.93 C 105.08 54.16 94.33 55.79 89.49 49.63 C 83.59 43.35 87.97 31.74 96.52 30.85 M 96.12 32.03 C 92.97 32.78 91.19 35.98 91.07 39.04 C 90.92 42.92 90.48 47.56 93.49 50.56 C 96.47 53.53 102.07 52.43 103.71 48.57 C 105.14 45.08 104.98 41.12 104.43 37.46 C 103.86 33.74 99.80 30.76 96.12 32.03 Z" />
</g>
</svg>
