<?xml version="1.0" encoding="UTF-8" ?>
<!DOCTYPE svg PUBLIC "-//W3C//DTD SVG 1.1//EN" "http://www.w3.org/Graphics/SVG/1.1/DTD/svg11.dtd">
<svg width="180pt" height="180pt" viewBox="0 0 180 180" version="1.1" xmlns="http://www.w3.org/2000/svg">
<g id="#f2f2f2f2">
<path fill="#f2f2f2" opacity="0.95" d=" M 11.98 59.06 C 19.67 59.01 27.35 58.99 35.03 58.99 C 42.60 75.33 49.89 91.80 57.52 108.12 C 64.82 91.67 72.25 75.26 79.91 58.98 C 87.27 58.98 94.64 58.99 102.00 59.00 C 102.00 60.33 102.00 61.66 102.00 62.99 C 98.98 62.98 96.01 63.01 93.00 63.00 C 93.00 80.67 92.99 98.33 93.00 115.99 C 95.99 115.98 99.01 116.01 102.00 116.01 C 102.00 117.33 102.00 118.67 102.00 120.00 C 92.00 120.01 82.00 120.01 72.00 120.00 C 72.00 118.67 72.00 117.34 72.00 116.01 C 74.99 115.99 78.00 116.00 81.00 116.00 C 81.00 98.92 81.09 81.85 80.82 64.78 C 74.12 79.14 67.62 93.60 61.14 108.06 C 58.94 112.75 56.94 117.79 52.81 121.14 C 43.53 103.02 35.99 84.08 27.31 65.67 C 26.88 82.10 26.97 98.53 27.02 114.96 C 30.00 115.35 32.98 115.71 35.96 116.09 C 35.98 117.39 36.00 118.69 36.01 120.00 C 28.00 120.00 20.00 120.01 11.99 119.99 C 12.01 118.74 12.02 117.49 12.04 116.24 C 15.34 115.88 18.64 115.50 21.94 115.05 C 21.85 97.86 22.55 80.64 21.73 63.46 C 19.31 63.21 14.47 62.71 12.05 62.46 C 12.03 61.33 12.01 60.19 11.98 59.06 Z" />
<path fill="#f2f2f2" opacity="0.95" d=" M 116.01 58.98 C 127.34 58.96 138.67 58.99 150.00 59.01 L 150.00 64.00 C 146.00 64.00 142.00 64.00 138.00 64.00 C 138.00 81.45 137.99 98.90 138.01 116.36 C 144.68 115.97 152.08 116.98 157.92 112.89 C 164.63 108.91 163.06 98.95 169.58 94.87 C 169.32 103.28 168.24 111.64 166.90 119.95 C 149.65 119.99 132.36 120.65 115.17 118.86 C 118.60 117.28 122.23 116.20 125.78 114.94 C 126.09 98.04 126.03 81.14 125.99 64.24 C 122.64 64.00 119.31 63.77 115.98 63.42 C 115.99 61.94 116.00 60.46 116.01 58.98 Z" />
<path fill="#f2f2f2" opacity="0.95" d=" M 144.95 78.95 C 146.60 73.77 152.93 71.00 157.86 73.14 C 161.69 74.57 162.65 79.24 164.23 82.46 C 159.90 82.71 151.24 83.20 146.91 83.45 C 148.33 87.06 149.03 92.26 153.30 93.79 C 157.43 93.64 160.45 90.72 163.81 88.77 C 160.73 91.68 158.31 97.08 153.00 95.01 C 145.93 94.01 141.46 85.30 144.95 78.95 M 151.45 74.21 C 149.57 76.44 148.48 79.19 147.30 81.82 C 151.79 81.81 156.29 81.78 160.79 81.72 C 158.96 77.91 157.53 71.41 151.45 74.21 Z" />
<path fill="#f2f2f2" opacity="0.95" d=" M 105.38 89.34 C 115.24 85.13 124.74 99.24 117.76 106.78 C 113.59 114.01 101.87 112.64 98.95 105.07 C 95.43 99.15 99.40 91.50 105.38 89.34 M 106.34 90.21 C 98.40 94.40 100.40 113.23 111.63 109.81 C 115.96 107.00 116.74 101.07 115.58 96.41 C 115.09 92.17 111.05 88.04 106.34 90.21 Z" />
</g>
</svg>
